<svg height="478" width="720" xmlns="http://www.w3.org/2000/svg">
<rect height="478" fill="#555" width="720"></rect>
<text fill="#7f7" font-family="Courier New" font-size="12" xml:space="preserve">
<tspan x="10" y="26">3 megabytes installed</tspan>
<tspan x="10" y="42"></tspan>
<tspan x="10" y="58">node_modules</tspan>
<tspan x="10" y="74">└─┬ pretty-error@2.1.0 </tspan>
<tspan x="10" y="90">  ├─┬ renderkid@2.0.1 </tspan>
<tspan x="10" y="106">  │ ├─┬ css-select@1.2.0 </tspan>
<tspan x="10" y="122">  │ │ ├── boolbase@1.0.0 </tspan>
<tspan x="10" y="138">  │ │ ├── css-what@2.1.0 </tspan>
<tspan x="10" y="154">  │ │ ├─┬ domutils@1.5.1 </tspan>
<tspan x="10" y="170">  │ │ │ └─┬ dom-serializer@0.1.0 </tspan>
<tspan x="10" y="186">  │ │ │   ├── domelementtype@1.1.3 </tspan>
<tspan x="10" y="202">  │ │ │   └── entities@1.1.1 </tspan>
<tspan x="10" y="218">  │ │ └── nth-check@1.0.1 </tspan>
<tspan x="10" y="234">  │ ├─┬ dom-converter@0.1.4 </tspan>
<tspan x="10" y="250">  │ │ └── utila@0.3.3 </tspan>
<tspan x="10" y="266">  │ ├─┬ htmlparser2@3.3.0 </tspan>
<tspan x="10" y="282">  │ │ ├── domelementtype@1.3.0 </tspan>
<tspan x="10" y="298">  │ │ ├── domhandler@2.1.0 </tspan>
<tspan x="10" y="314">  │ │ ├── domutils@1.1.6 </tspan>
<tspan x="10" y="330">  │ │ └─┬ readable-stream@1.0.34 </tspan>
<tspan x="10" y="346">  │ │   ├── core-util-is@1.0.2 </tspan>
<tspan x="10" y="362">  │ │   ├── inherits@2.0.3 </tspan>
<tspan x="10" y="378">  │ │   ├── isarray@0.0.1 </tspan>
<tspan x="10" y="394">  │ │   └── string_decoder@0.10.31 </tspan>
<tspan x="10" y="410">  │ ├─┬ strip-ansi@3.0.1 </tspan>
<tspan x="10" y="426">  │ │ └── ansi-regex@2.1.1 </tspan>
<tspan x="10" y="442">  │ └── utila@0.3.3 </tspan>
<tspan x="10" y="458">  └── utila@0.4.0</tspan>
</text>
</svg>
